<mxfile host="app.diagrams.net" modified="2024-03-25T22:39:54.823Z" agent="Mozilla/5.0 (Windows NT 10.0; Win64; x64) AppleWebKit/537.36 (KHTML, like Gecko) Chrome/122.0.0.0 Safari/537.36" etag="CNnmjusfDZXhzmSv_UWm" version="24.1.0" type="github">
  <diagram name="Page-1" id="ShOJZOdcozLiZB4Zi4mf">
    <mxGraphModel dx="838" dy="438" grid="1" gridSize="10" guides="1" tooltips="1" connect="1" arrows="1" fold="1" page="1" pageScale="1" pageWidth="850" pageHeight="1400" math="0" shadow="0">
      <root>
        <mxCell id="0" />
        <mxCell id="1" parent="0" />
        <mxCell id="2BrftuQvteU4rKJWlO9--18" style="edgeStyle=none;rounded=0;orthogonalLoop=1;jettySize=auto;html=1;entryX=0.5;entryY=0;entryDx=0;entryDy=0;strokeColor=default;align=center;verticalAlign=middle;fontFamily=Helvetica;fontSize=24;fontColor=default;labelBackgroundColor=default;endArrow=classic;" edge="1" parent="1" source="2BrftuQvteU4rKJWlO9--1" target="2BrftuQvteU4rKJWlO9--4">
          <mxGeometry relative="1" as="geometry" />
        </mxCell>
        <mxCell id="2BrftuQvteU4rKJWlO9--19" style="edgeStyle=none;rounded=0;orthogonalLoop=1;jettySize=auto;html=1;entryX=0.5;entryY=0;entryDx=0;entryDy=0;strokeColor=default;align=center;verticalAlign=middle;fontFamily=Helvetica;fontSize=24;fontColor=default;labelBackgroundColor=default;endArrow=classic;" edge="1" parent="1" source="2BrftuQvteU4rKJWlO9--1" target="2BrftuQvteU4rKJWlO9--5">
          <mxGeometry relative="1" as="geometry" />
        </mxCell>
        <mxCell id="2BrftuQvteU4rKJWlO9--1" value="-" style="ellipse;whiteSpace=wrap;html=1;aspect=fixed;fontSize=24;" vertex="1" parent="1">
          <mxGeometry x="60" y="240" width="80" height="80" as="geometry" />
        </mxCell>
        <mxCell id="2BrftuQvteU4rKJWlO9--16" style="edgeStyle=none;rounded=0;orthogonalLoop=1;jettySize=auto;html=1;strokeColor=default;align=center;verticalAlign=middle;fontFamily=Helvetica;fontSize=24;fontColor=default;labelBackgroundColor=default;endArrow=classic;" edge="1" parent="1" source="2BrftuQvteU4rKJWlO9--4" target="2BrftuQvteU4rKJWlO9--5">
          <mxGeometry relative="1" as="geometry" />
        </mxCell>
        <mxCell id="2BrftuQvteU4rKJWlO9--17" style="edgeStyle=none;rounded=0;orthogonalLoop=1;jettySize=auto;html=1;strokeColor=default;align=center;verticalAlign=middle;fontFamily=Helvetica;fontSize=24;fontColor=default;labelBackgroundColor=default;endArrow=classic;" edge="1" parent="1" source="2BrftuQvteU4rKJWlO9--4" target="2BrftuQvteU4rKJWlO9--6">
          <mxGeometry relative="1" as="geometry" />
        </mxCell>
        <mxCell id="2BrftuQvteU4rKJWlO9--4" value="*" style="ellipse;whiteSpace=wrap;html=1;aspect=fixed;strokeColor=default;align=center;verticalAlign=middle;fontFamily=Helvetica;fontSize=24;fontColor=default;fillColor=default;" vertex="1" parent="1">
          <mxGeometry x="170" y="370" width="80" height="80" as="geometry" />
        </mxCell>
        <mxCell id="2BrftuQvteU4rKJWlO9--9" style="rounded=0;orthogonalLoop=1;jettySize=auto;html=1;fontFamily=Helvetica;fontSize=24;fontColor=default;" edge="1" parent="1" source="2BrftuQvteU4rKJWlO9--5" target="2BrftuQvteU4rKJWlO9--7">
          <mxGeometry relative="1" as="geometry" />
        </mxCell>
        <mxCell id="2BrftuQvteU4rKJWlO9--10" style="edgeStyle=none;rounded=0;orthogonalLoop=1;jettySize=auto;html=1;entryX=0;entryY=0;entryDx=0;entryDy=0;strokeColor=default;align=center;verticalAlign=middle;fontFamily=Helvetica;fontSize=24;fontColor=default;labelBackgroundColor=default;endArrow=classic;" edge="1" parent="1" source="2BrftuQvteU4rKJWlO9--5" target="2BrftuQvteU4rKJWlO9--8">
          <mxGeometry relative="1" as="geometry" />
        </mxCell>
        <mxCell id="2BrftuQvteU4rKJWlO9--5" value="+" style="ellipse;whiteSpace=wrap;html=1;aspect=fixed;strokeColor=default;align=center;verticalAlign=middle;fontFamily=Helvetica;fontSize=24;fontColor=default;fillColor=default;" vertex="1" parent="1">
          <mxGeometry x="60" y="510" width="80" height="80" as="geometry" />
        </mxCell>
        <mxCell id="2BrftuQvteU4rKJWlO9--23" style="edgeStyle=none;rounded=0;orthogonalLoop=1;jettySize=auto;html=1;strokeColor=default;align=center;verticalAlign=middle;fontFamily=Helvetica;fontSize=24;fontColor=default;labelBackgroundColor=default;endArrow=classic;" edge="1" parent="1" source="2BrftuQvteU4rKJWlO9--6" target="2BrftuQvteU4rKJWlO9--7">
          <mxGeometry relative="1" as="geometry" />
        </mxCell>
        <mxCell id="2BrftuQvteU4rKJWlO9--24" style="edgeStyle=none;rounded=0;orthogonalLoop=1;jettySize=auto;html=1;entryX=0.5;entryY=0;entryDx=0;entryDy=0;strokeColor=default;align=center;verticalAlign=middle;fontFamily=Helvetica;fontSize=24;fontColor=default;labelBackgroundColor=default;endArrow=classic;" edge="1" parent="1" source="2BrftuQvteU4rKJWlO9--6" target="2BrftuQvteU4rKJWlO9--8">
          <mxGeometry relative="1" as="geometry" />
        </mxCell>
        <mxCell id="2BrftuQvteU4rKJWlO9--6" value="-" style="ellipse;whiteSpace=wrap;html=1;aspect=fixed;strokeColor=default;align=center;verticalAlign=middle;fontFamily=Helvetica;fontSize=24;fontColor=default;fillColor=default;" vertex="1" parent="1">
          <mxGeometry x="270" y="510" width="80" height="80" as="geometry" />
        </mxCell>
        <mxCell id="2BrftuQvteU4rKJWlO9--7" value="x" style="ellipse;whiteSpace=wrap;html=1;aspect=fixed;strokeColor=default;align=center;verticalAlign=middle;fontFamily=Helvetica;fontSize=24;fontColor=default;fillColor=default;" vertex="1" parent="1">
          <mxGeometry x="60" y="670" width="80" height="80" as="geometry" />
        </mxCell>
        <mxCell id="2BrftuQvteU4rKJWlO9--8" value="y" style="ellipse;whiteSpace=wrap;html=1;aspect=fixed;strokeColor=default;align=center;verticalAlign=middle;fontFamily=Helvetica;fontSize=24;fontColor=default;fillColor=default;" vertex="1" parent="1">
          <mxGeometry x="270" y="670" width="80" height="80" as="geometry" />
        </mxCell>
        <mxCell id="2BrftuQvteU4rKJWlO9--22" style="edgeStyle=none;rounded=0;orthogonalLoop=1;jettySize=auto;html=1;entryX=1;entryY=0;entryDx=0;entryDy=0;strokeColor=default;align=center;verticalAlign=middle;fontFamily=Helvetica;fontSize=24;fontColor=default;labelBackgroundColor=default;endArrow=classic;" edge="1" parent="1" source="2BrftuQvteU4rKJWlO9--20" target="2BrftuQvteU4rKJWlO9--4">
          <mxGeometry relative="1" as="geometry" />
        </mxCell>
        <mxCell id="2BrftuQvteU4rKJWlO9--20" value="+" style="ellipse;whiteSpace=wrap;html=1;aspect=fixed;strokeColor=default;align=center;verticalAlign=middle;fontFamily=Helvetica;fontSize=24;fontColor=default;labelBackgroundColor=default;fillColor=default;" vertex="1" parent="1">
          <mxGeometry x="200" y="150" width="80" height="80" as="geometry" />
        </mxCell>
        <mxCell id="2BrftuQvteU4rKJWlO9--21" style="edgeStyle=none;rounded=0;orthogonalLoop=1;jettySize=auto;html=1;entryX=0.5;entryY=0;entryDx=0;entryDy=0;strokeColor=default;align=center;verticalAlign=middle;fontFamily=Helvetica;fontSize=24;fontColor=default;labelBackgroundColor=default;endArrow=classic;" edge="1" parent="1" source="2BrftuQvteU4rKJWlO9--20" target="2BrftuQvteU4rKJWlO9--1">
          <mxGeometry relative="1" as="geometry" />
        </mxCell>
        <mxCell id="2BrftuQvteU4rKJWlO9--25" value="Edgar Alvarez - 202001144" style="rounded=0;whiteSpace=wrap;html=1;strokeColor=default;align=center;verticalAlign=middle;fontFamily=Helvetica;fontSize=24;fontColor=default;labelBackgroundColor=default;fillColor=default;" vertex="1" parent="1">
          <mxGeometry x="20" y="30" width="410" height="60" as="geometry" />
        </mxCell>
        <mxCell id="2BrftuQvteU4rKJWlO9--26" value="6.1.1" style="rounded=1;whiteSpace=wrap;html=1;strokeColor=default;align=center;verticalAlign=middle;fontFamily=Helvetica;fontSize=24;fontColor=default;labelBackgroundColor=default;fillColor=default;" vertex="1" parent="1">
          <mxGeometry x="20" y="100" width="120" height="60" as="geometry" />
        </mxCell>
      </root>
    </mxGraphModel>
  </diagram>
</mxfile>
